<?xml version="1.0" standalone="no"?>
<!DOCTYPE svg PUBLIC "-//W3C//DTD SVG 20010904//EN"
 "http://www.w3.org/TR/2001/REC-SVG-20010904/DTD/svg10.dtd">
<svg version="1.0" xmlns="http://www.w3.org/2000/svg"
 width="512.000000pt" height="512.000000pt" viewBox="0 0 512.000000 512.000000"
 preserveAspectRatio="xMidYMid meet">

<g transform="translate(0.000000,512.000000) scale(0.100000,-0.100000)"
fill="#000000" stroke="none">
<path d="M1175 4803 c-61 -7 -231 -45 -262 -58 -17 -7 -38 -24 -47 -37 -19
-29 -596 -2202 -596 -2245 0 -37 39 -88 75 -97 13 -3 69 1 124 9 149 22 389
20 512 -5 252 -51 414 -141 773 -428 109 -88 215 -158 305 -203 127 -63 121
-64 185 33 31 45 56 88 56 93 0 6 -31 21 -69 33 -38 12 -109 48 -159 80 -104
65 -382 281 -382 296 0 8 213 780 225 814 3 9 23 -1 62 -31 146 -111 330 -218
337 -195 3 7 16 55 29 106 l24 93 -71 41 c-127 73 -306 211 -306 236 0 21 222
815 230 825 4 5 52 -26 106 -69 112 -87 234 -169 311 -208 l53 -26 45 90 c25
49 45 93 45 98 0 4 -21 18 -47 31 -80 39 -179 109 -388 275 -110 88 -240 186
-290 219 -178 117 -355 191 -529 222 -80 14 -271 18 -351 8z m104 -1244 c134
-34 262 -110 404 -241 l57 -53 -115 -410 c-64 -225 -118 -420 -121 -432 -6
-21 -9 -20 -99 27 -120 61 -239 104 -367 132 -87 19 -135 22 -309 23 l-206 0
33 125 c19 69 76 282 127 475 l93 349 39 9 c139 29 340 27 464 -4z"/>
<path d="M3438 4771 c-45 -36 -347 -582 -534 -966 -440 -902 -521 -1402 -282
-1736 9 -13 2 -36 -34 -116 -91 -204 -233 -414 -391 -579 l-89 -93 -40 20
c-81 41 -269 110 -370 134 -113 28 -252 35 -303 15 -120 -46 -156 -166 -88
-294 33 -60 158 -194 258 -276 380 -311 979 -582 1254 -568 90 4 141 26 179
76 23 31 27 45 27 107 0 63 -4 77 -35 130 -46 79 -200 232 -326 326 l-101 75
33 95 c70 200 220 462 369 647 66 82 67 82 114 82 64 0 152 24 239 65 391 185
875 811 1437 1862 71 133 95 188 95 215 0 32 -12 53 -79 135 -97 121 -261 279
-369 356 -172 124 -403 217 -667 272 -71 15 -161 29 -200 32 -61 5 -73 3 -97
-16z m257 -226 c229 -47 405 -117 564 -222 82 -55 325 -284 349 -330 9 -17 -4
-48 -87 -199 -94 -171 -100 -179 -127 -177 -263 21 -402 11 -638 -44 -188 -44
-289 -24 -379 76 -44 48 -177 246 -177 262 0 26 349 659 363 659 5 0 65 -11
132 -25z m-886 -2638 l41 -24 -46 -59 c-131 -169 -286 -444 -349 -619 -16 -44
-30 -81 -31 -83 -3 -5 -154 79 -154 85 0 3 30 37 66 77 141 151 300 387 382
565 20 45 40 81 43 81 4 0 25 -10 48 -23z m-1129 -689 c291 -80 706 -307 968
-530 72 -61 157 -156 148 -166 -8 -8 -165 28 -256 58 -363 122 -847 425 -1012
633 l-32 40 54 -7 c30 -4 89 -16 130 -28z"/>
</g>
</svg>
